<svg>
	<g>
		<path fill="#F37130" d="M97.9,76.8c0-0.4,0.1-0.8,0.1-1.3l0-7.8l0,0l0-14.2c0-16.9-13.8-30.7-30.8-30.7c-3.8,0-8.5,0.9-11.1,1.9
			c-0.7,0.3-2.7,1.4-2.7,1.4c-0.3,0.2-0.7,0.4-1.1,0.6l-1.8,1.1c-1.9,1.2-3.6,2.6-5.2,4.2l-0.4,0.4l0,0c-5.4,5.7-8.4,13.2-8.4,21.2
			l0,13.8l0.1,0l0.1,30.7c0,1.7,0.9,3.3,2.5,4.5c1.5,1.1,3.5,1.7,5.7,1.7h0l44.8-0.1c4.5,0,8.2-2.8,8.2-6.3L97.9,76.8z M95.9,75.5
			c0,14.6-12.7,26.5-28.4,26.6c-7.5,0-14.7-2.7-20.1-7.7s-8.7-11.6-8.8-18.7l0-8.2l1.3,0c6.4-0.2,12.2-3.8,16-9.9
			c7.8,7.3,18.8,11.5,30.5,11.5h0.1c2.9,0,5.9-0.3,8.7-0.8l0.6-0.1L95.9,75.5z M46.6,33.5l0.1-0.1c1.4-1.5,3.1-2.8,4.8-3.9l1.5-0.9
			l0.2-0.1c0.3-0.2,0.6-0.3,0.9-0.5l1-0.5l0,0l0.8-0.4c3.5-1.5,7.3-2.3,11.2-2.3C83,24.8,95.9,37.7,96,53.6l0,12.6l-1.1,0.2
			c-2.8,0.5-5.6,0.8-8.4,0.8h-0.1c-11.6,0-22.5-4.3-30-11.8l-0.9-0.9l-0.6,1.1c-3.5,6.1-9,9.8-15.1,10l-1.4,0l0-11.9
			C38.4,46.1,41.3,38.9,46.6,33.5z M44.9,102.5L44.9,102.5c-1.8,0-3.4-0.5-4.6-1.4c-1.1-0.8-1.7-1.9-1.7-3l0-13
			c1.6,3.9,4.1,7.6,7.4,10.6c3.3,3.1,7.3,5.3,11.6,6.7L44.9,102.5z M89.7,102.4l-12.2,0c8.5-2.8,15.3-9,18.5-16.9L96,98
			C96,100.4,93.2,102.4,89.7,102.4z"/>
		<path fill="#F37130" d="M74.7,85.7l-16,0l0,3c0,4.4,3.6,8,8,8h0c4.4,0,8-3.6,8-8.1c0-0.1,0-0.3,0-2L74.7,85.7z M66.7,94.8l0,1
			L66.7,94.8c-3.4,0-6.1-2.7-6.1-6.3v-0.9l12.2,0c0,0.9,0,1,0,1.1C72.8,92,70,94.8,66.7,94.8z"/>
	</g>
	<g>
		<path fill="#42BE5C" d="M222.3,57.7l0-6c0-7.7-3-15-8.4-20.5c-5.4-5.5-12.6-8.5-20.4-8.5c-3.5,0-10.3,1.7-10.3,1.7l-2.6,1.4
			c-0.3,0.2-0.6,0.3-0.9,0.5l-1.7,1c-1.8,1.1-3.4,2.5-4.9,4l-0.3,0.3v0c-5.2,5.4-8,12.5-8,20l0,13.1l0,0l0,9.8
			c0,15.9,12.8,28.8,28.7,28.9c0,0,0.1,0,0.1,0c15.8,0,28.7-12.9,28.8-28.7L222.3,57.7L222.3,57.7z M166.7,51.6
			c0-7.1,2.8-13.9,7.7-18.9l0.1-0.1c1.4-1.4,2.9-2.6,4.5-3.7l1.4-0.9l0.2-0.1c0.3-0.2,0.6-0.3,0.9-0.5l0.9-0.4l0,0l0.8-0.4
			c3.3-1.4,6.8-2.1,10.4-2.1h0c7.2,0,13.9,2.9,19,8c5.1,5.1,7.9,11.9,7.8,19.1l0,11.8l-1,0.2c-2.5,0.5-5.1,0.7-7.7,0.7h-0.1
			c-10.9,0-21.1-4.1-28.1-11.2l-0.9-0.9l-0.6,1.1c-3.3,5.7-8.5,9.1-14.1,9.3l-1.2,0L166.7,51.6z M193.5,101.4
			C193.5,101.4,193.5,101.4,193.5,101.4c-14.9,0-26.9-12.1-26.9-27l0-9.9l1.3,0c6-0.2,11.4-3.5,15.1-9.2c7.3,6.9,17.6,10.9,28.6,11
			h0.1h0c2.7,0,5.4-0.2,8.1-0.7l0.6-0.1l0,9.2C220.4,89.4,208.3,101.4,193.5,101.4z"/>
		<path fill="#42BE5C" d="M184.8,84.7l0,1c0,1.8,0,1.9,0,2.1c0,4.5,3.6,8.1,8.1,8.1h0c4.5,0,8.1-3.6,8.1-8.2l0-2l0-1L184.8,84.7z
			 M192.9,94v1V94c-3.4,0-6.2-2.8-6.2-6.2c0-0.1,0-0.2,0-1.1l12.4,0l0,1.1C199,91.2,196.3,94,192.9,94z"/>
	</g>
	<line fill="#F37130" stroke="#808080" stroke-miterlimit="10" x1="132.2" y1="22.9" x2="132.2" y2="104.4"/>
	<text transform="matrix(1 0 0 1 46.8546 127.8328)" fill="#5D5E5E">Mujer</text>
	<text transform="matrix(1 0 0 1 172.3981 127.8328)" fill="#5D5E5E">Varón</text>
</svg>
