<?xml version="1.0" encoding="utf-8"?>
<!-- Generator: Adobe Illustrator 18.0.0, SVG Export Plug-In . SVG Version: 6.00 Build 0)  -->
<!DOCTYPE svg PUBLIC "-//W3C//DTD SVG 1.1//EN" "http://www.w3.org/Graphics/SVG/1.1/DTD/svg11.dtd">
<svg version="1.1" id="Layer_1" xmlns="http://www.w3.org/2000/svg" xmlns:xlink="http://www.w3.org/1999/xlink" x="0px" y="0px"
	 viewBox="0 0 255.1 125" enable-background="new 0 0 255.1 125" xml:space="preserve">
<g>
	<g>
		<g>
			<g>
				<path fill="#00368A" d="M226.9,117.1l-73.7-3.5c-10-0.5-17.7-9-17.2-19l3.5-73.7c0.5-10,9-17.7,19-17.2l73.7,3.5
					c10,0.5,17.7,9,17.2,19l-3.5,73.7C245.4,109.8,236.9,117.5,226.9,117.1z"/>
			</g>
		</g>
		<g>
			<path fill="#FF8140" d="M225.4,122.5c-0.8,0.1-1.7,0.1-2.5,0l-73.7-3.5c-5.1-0.2-9.7-2.4-13.1-6.2c-3.4-3.7-5.1-8.6-4.9-13.6
				l3.5-73.7c0.4-9.5,7.9-17.2,17.3-18c0.8-0.1,1.7-0.1,2.5,0l73.7,3.5c5.1,0.2,9.7,2.4,13.1,6.2c3.4,3.7,5.1,8.6,4.9,13.6
				l-3.5,73.7C242.3,114,234.8,121.7,225.4,122.5z M152.1,9.2c-8.6,0.7-15.4,7.8-15.8,16.4l-3.5,73.7c-0.2,4.6,1.4,9,4.5,12.5
				c3.1,3.4,7.4,5.4,12,5.6l73.7,3.5c0.8,0,1.5,0,2.3,0c8.6-0.7,15.4-7.8,15.8-16.4l3.5-73.7c0.2-4.6-1.4-9-4.5-12.5
				s-7.4-5.4-12-5.6l-73.7-3.5C153.6,9.1,152.8,9.1,152.1,9.2z"/>
		</g>
		<g>
			<path fill="#5ED476" d="M221.7,72.6c0-0.3,0-0.5,0.1-0.8l0.1-7.2l0,0l0.2-13.8c0.2-16.3-12.8-29.8-29.2-30
				c-3.9-0.1-8.4,0.8-10.7,1.7c-0.7,0.3-2.6,1.3-2.6,1.3c-0.3,0.2-0.6,0.3-1,0.5l-1.7,1c-1.8,1.1-3.5,2.5-5.1,4l-0.4,0.4l-0.1,0.1
				l0,0c-5.2,5.4-8.2,12.6-8.3,20.1l-0.2,13.2l0,0.3l-0.4,28.9c0,1.7,0.8,3.4,2.5,4.6c1.5,1.1,3.5,1.8,5.6,1.8l0,0l42.8,0.6
				c4.5,0.1,8.2-2.7,8.2-6.1l0.3-20.2C221.7,72.9,221.7,72.8,221.7,72.6z M165.3,50.1c0.1-7.2,3-13.9,8.1-18.9l0.1-0.1
				c1.4-1.4,2.9-2.6,4.6-3.6l1.4-0.8l0.2-0.1c0.3-0.2,0.6-0.3,0.9-0.5l0.7-0.4l1-0.4c3.4-1.4,6.9-2,10.6-2
				c14.9,0.3,26.9,12.6,26.7,27.6l-0.2,11.7l-0.8,0.1c-2.6,0.5-5.3,0.7-8,0.6l-0.1,0c-11-0.2-21.2-4.4-28.2-11.7l-1.1-1.2l-0.8,1.4
				c-3.4,5.7-8.6,9-14.3,9.1l-1,0L165.3,50.1z M170.4,96.4c-1.6,0-3.1-0.5-4.1-1.3c-1-0.7-1.5-1.7-1.5-2.6l0.2-11
				c1.5,3.3,3.7,6.4,6.4,9c2.7,2.6,5.8,4.6,9.4,6L170.4,96.4z M173.1,88.8c-5.2-5-8-11.3-7.9-17.8l0.1-7.5l0.9,0
				c6-0.1,11.7-3.4,15.5-9c7.3,7,17.8,11.1,28.8,11.3l0.1,0c2.8,0,5.6-0.2,8.4-0.7l0.2,0l-0.1,6.7c-0.1,6.7-3,12.9-8.1,17.5
				c-5.1,4.7-11.9,7.2-19.1,7C184.8,96.3,178.1,93.6,173.1,88.8z M213.2,97l-9.9-0.1c7-2.6,12.7-7.6,15.8-14.1l-0.1,10.5
				C218.9,95.4,216.3,97.1,213.2,97z"/>
		</g>
		<g>
			<path fill="#5ED476" d="M199.4,80.8l-15.9-0.2l-0.1,3.1c-0.1,4.4,3.4,8,7.8,8.1l0,0c4.4,0.1,8-3.5,8.1-7.9c0-0.1,0-0.2,0-1.9
				L199.4,80.8z M191.3,89.4L191.3,89.4c-3.1-0.1-5.5-2.6-5.4-5.8l0-0.5l11,0.2c0,0.6,0,0.7,0,0.7C196.8,87,194.3,89.4,191.3,89.4z"
				/>
		</g>
	</g>
	<g>
		<g>
			<g>
				<g>
					<path fill="#00368A" d="M103.4,113.3l-73.8,1.2c-10,0.2-18.3-7.8-18.4-17.8L9.9,22.9c-0.2-10,7.8-18.3,17.8-18.4l73.8-1.2
						c10-0.2,18.3,7.8,18.4,17.8l1.2,73.8C121.4,104.8,113.4,113.1,103.4,113.3z"/>
				</g>
			</g>
			<g>
				<path fill="#FF8140" d="M100,118.3l-73.8,1.2c-10.4,0.2-19.1-8.2-19.3-18.6L5.7,27.1C5.6,16.6,13.9,8,24.4,7.8l73.8-1.2
					c10.4-0.2,19.1,8.2,19.3,18.6l1.2,73.8C118.8,109.4,110.5,118.1,100,118.3z M24.4,9.5c-9.5,0.2-17.2,8.1-17,17.6l1.2,73.8
					c0.2,9.5,8.1,17.2,17.6,17l73.8-1.2c9.5-0.2,17.2-8.1,17-17.6l-1.2-73.8c-0.2-9.5-8.1-17.2-17.6-17L24.4,9.5z"/>
			</g>
			<g>
				<g>
					<path fill="#5ED476" d="M93.4,53.2l-0.1-5.8c-0.1-7.5-3.1-14.5-8.5-19.8c-5.4-5.2-12.4-8.1-20-8c-3.4,0.1-10,1.8-10,1.8
						l-2.5,1.4c-0.3,0.2-0.6,0.3-0.9,0.5l-1.7,1c-1.7,1.1-3.2,2.4-4.7,3.9l-0.3,0.3l0,0C40,34,37.3,40.9,37.4,48.2l0.2,12.7l0,0
						l0.1,9.6C38,85.9,50.7,98.3,66.1,98c0,0,0.1,0,0.1,0c15.4-0.3,27.7-13,27.5-28.4L93.4,53.2L93.4,53.2z M39.3,48.2
						c-0.1-6.9,2.5-13.5,7.2-18.5l0.1-0.1c1.3-1.4,2.8-2.6,4.3-3.6l1.4-0.9l0.2-0.1c0.3-0.2,0.6-0.3,0.8-0.5l0.8-0.4l0,0l0.8-0.4
						c3.2-1.4,6.5-2.1,10.1-2.2l0,0c7-0.1,13.6,2.5,18.6,7.4c5,4.9,7.8,11.4,7.9,18.4l0.2,11.4l-1,0.2c-2.5,0.5-5,0.8-7.5,0.8
						l-0.1,0C72.5,60,62.5,56.2,55.7,49.4l-0.9-0.9l-0.6,1.1c-3.1,5.6-8.1,9-13.6,9.2l-1.2,0.1L39.3,48.2z M66.2,96.2
						C66.1,96.2,66.1,96.2,66.2,96.2c-14.5,0.2-26.3-11.3-26.5-25.7l-0.1-9.6l1.2-0.1c5.8-0.3,11-3.6,14.5-9.2
						c7.2,6.6,17.3,10.3,27.9,10.2l0.1,0l0,0c2.6,0,5.3-0.3,7.8-0.9l0.6-0.1l0.1,8.9C92,84.1,80.5,95.9,66.2,96.2z"/>
				</g>
				<g>
					<path fill="#5ED476" d="M66.2,98.4L66.2,98.4c-15.7,0.2-28.6-12.3-28.8-27.9l-0.1-9.2l0-0.4l-0.2-12.7
						c-0.1-7.3,2.5-14.3,7.5-19.7l0,0l0.1-0.1l0.3-0.3c1.4-1.5,3-2.8,4.7-4l1.7-1c0.3-0.2,0.6-0.4,0.9-0.5l2.6-1.4
						c0.3-0.1,6.6-1.8,10-1.8c7.6-0.1,14.8,2.8,20.2,8.1c5.4,5.3,8.5,12.4,8.6,20l0.1,5.5l0,0L94,69.7
						C94.3,85.2,81.8,98.1,66.2,98.4z M38,60.5l0,0.4l0.1,9.6c0.2,15.2,12.8,27.5,28,27.2l0.1,0c15.2-0.3,27.4-12.8,27.1-28
						l-0.2-16.1l0-0.4L93,47.4c-0.1-7.4-3.1-14.3-8.4-19.5c-5.3-5.2-12.3-8-19.7-7.9c-3.2,0.1-9.3,1.7-9.8,1.8l-2.5,1.3
						c-0.3,0.2-0.6,0.3-0.9,0.5l-1.7,1c-1.6,1.1-3.2,2.4-4.6,3.9l-0.3,0.3c-4.9,5.2-7.5,12.1-7.4,19.3L38,60.5z M66.2,96.5
						L66.2,96.5C51.5,96.7,39.5,85,39.3,70.4l-0.1-10l1.6-0.1c5.6-0.3,10.8-3.5,14.2-9l0.2-0.4l0.3,0.3c7.1,6.6,17.2,10.2,27.7,10.1
						l0.1,0c2.6,0,5.2-0.3,7.8-0.8l1-0.2l0.1,9.3C92.4,84.2,80.7,96.3,66.2,96.5z M39.8,61.1l0.1,9.3C40.2,84.6,51.9,96,66.1,95.8
						l0.1,0c14.2-0.2,25.5-12,25.3-26.1l-0.1-8.5l-0.2,0c-2.6,0.5-5.2,0.8-7.9,0.9l-0.1,0c-10.5,0.1-20.6-3.5-27.9-10
						c-3.5,5.5-8.8,8.7-14.5,9L39.8,61.1z M83.2,60.2l-0.1,0c-10.7,0.2-20.8-3.7-27.7-10.6l-0.5-0.5l-0.4,0.7
						c-3.2,5.7-8.2,9.2-13.8,9.4l-1.6,0.1l-0.2-11.1c-0.1-7,2.5-13.7,7.3-18.7l0.1-0.1c1.3-1.4,2.8-2.6,4.4-3.7l1.6-1
						c0.3-0.2,0.6-0.3,0.9-0.5l1.1-0.6l0,0l0.5-0.2C58,22,61.5,21.3,65,21.2c7.1-0.1,13.7,2.6,18.8,7.5c5.1,5,7.9,11.6,8,18.7
						L92,59.2l-1.2,0.3C88.3,59.9,85.8,60.2,83.2,60.2z M54.7,48l1.2,1.2c6.8,6.7,16.7,10.5,27.2,10.4l0.1,0c2.5,0,5-0.3,7.4-0.8
						l0.7-0.1l-0.2-11.1c-0.1-6.9-2.9-13.4-7.8-18.2c-4.9-4.8-11.4-7.4-18.3-7.3c-3.5,0.1-6.8,0.8-9.9,2.2l-1,0.4l-0.6,0.3
						c-0.3,0.2-0.6,0.3-0.8,0.5l-0.2,0.1l-1.3,0.8c-1.5,1-3,2.2-4.3,3.6l-0.1,0.1c-4.7,4.9-7.2,11.4-7.1,18.3l0.1,10.4l0.8,0
						c5.4-0.2,10.2-3.5,13.3-9.1L54.7,48z"/>
				</g>
			</g>
		</g>
		<g>
			<g>
				<path fill="#5ED476" d="M57.4,80.1l0,0.9c0,1.7,0,1.9,0,2c0.1,4.3,3.6,7.8,8,7.8l0,0c4.3-0.1,7.8-3.7,7.7-8.1l0-1.9l0-0.9
					L57.4,80.1z M65.4,88.9l0,0.9L65.4,88.9c-3.3,0-6.1-2.6-6.1-5.9c0-0.1,0-0.2,0-1.1l12-0.2l0,1.1C71.4,86.1,68.7,88.9,65.4,88.9z
					"/>
			</g>
			<g>
				<path fill="#5ED476" d="M65.4,91.2c-4.6,0.1-8.3-3.6-8.4-8.1c0-0.1,0-0.3,0-2l0-1.3l16.4-0.2l0,1.3l0,1.9
					C73.6,87.3,70,91.1,65.4,91.2z M57.7,80.4l0,0.6c0,1.7,0,1.9,0,2c0.1,4.2,3.5,7.5,7.6,7.4c4.2-0.1,7.5-3.5,7.4-7.7l0-1.9l0-0.6
					L57.7,80.4z M65.1,89.9l0-0.6c-3.4-0.1-6.1-2.9-6.1-6.3c0-0.1,0-0.2,0-1.1l0-0.4l12.7-0.2l0,1.4c0,3.4-2.6,6.2-5.9,6.4l0,0.6
					L65.1,89.9z M65.4,88.6L65.4,88.6c3.1-0.1,5.6-2.6,5.6-5.7l0-0.7l-11.3,0.2c0,0.6,0,0.7,0,0.7C59.7,86.1,62.2,88.6,65.4,88.6z"
					/>
			</g>
		</g>
	</g>
</g>
</svg>
