<?xml version="1.0" encoding="utf-8"?>
<!-- Generator: Adobe Illustrator 18.0.0, SVG Export Plug-In . SVG Version: 6.00 Build 0)  -->
<!DOCTYPE svg PUBLIC "-//W3C//DTD SVG 1.1//EN" "http://www.w3.org/Graphics/SVG/1.1/DTD/svg11.dtd">
<svg version="1.1" id="Layer_1" xmlns="http://www.w3.org/2000/svg" xmlns:xlink="http://www.w3.org/1999/xlink" x="0px" y="0px"
	 viewBox="0 0 40 40" enable-background="new 0 0 40 40" xml:space="preserve">
<g>
	<path fill="#03A9F4" d="M20,0C9,0,0,9,0,20s9,20,20,20s20-9,20-20S31,0,20,0z M22,33.2h-5.2v-4.5H22V33.2z M27.1,18.5
		c-0.9,1.3-2,2.4-3.3,3.2c-0.7,0.6-1.2,1.1-1.4,1.7C22.1,24,22,24.8,22,25.8h-5.2c0-1.7,0.3-2.9,0.7-3.7c0.5-0.8,1.4-1.7,2.9-2.8
		c0.8-0.7,1.5-1.4,2-2.2c0.5-0.8,0.8-1.7,0.8-2.7c0-1.1-0.3-1.9-0.9-2.6c-0.6-0.6-1.4-0.9-2.5-0.9c-0.9,0-1.6,0.3-2.2,0.8
		C17,12.2,16.7,13,16.7,14h-5.1l0-0.1c0-2.3,0.7-4,2.3-5.2c1.5-1.2,3.5-1.8,6-1.8c2.7,0,4.8,0.7,6.3,2s2.3,3.2,2.3,5.5
		C28.4,15.9,28,17.3,27.1,18.5z"/>
</g>
</svg>
